<svg width="24" height="24" viewBox="0 0 24 24" fill="none" xmlns="http://www.w3.org/2000/svg">
<path d="M11.9904 2C8.43838 2 5.99038 4.44801 5.99038 8.00002C5.99038 8.48502 5.99038 9.00002 5.99038 10C5.99038 11 5.82838 11.54 5.27138 12C5.20838 12.052 4.94438 12.279 4.86538 12.344C3.60038 13.39 2.97938 14.37 2.99038 16C2.99838 17.078 3.88338 18.011 4.99038 18H9.18137C9.18137 18 8.99038 18.6111 8.99038 19.0001C8.99038 20.6571 10.3334 22.0001 11.9904 22.0001C13.6474 22.0001 14.9904 20.6571 14.9904 19.0001C14.9904 18.6111 14.8074 18 14.8074 18H18.9904C20.0944 18.003 20.9894 17.084 20.9904 16C20.9924 14.382 20.3644 13.385 19.1154 12.344C19.0334 12.275 18.7434 12.054 18.6784 12C18.1334 11.546 17.9904 11 17.9904 10C17.9904 8.75002 17.9904 8.00002 17.9904 8.00002C17.9904 4.44801 15.5424 2 11.9904 2ZM11.9904 18C12.5424 18 12.9904 18.4481 12.9904 19.0001C12.9904 19.5521 12.5424 20.0001 11.9904 20.0001C11.4384 20.0001 10.9904 19.5521 10.9904 19.0001C10.9904 18.4481 11.4384 18 11.9904 18Z" fill="#707070"/>
</svg>
