<svg width="24" height="24" viewBox="0 0 24 24" fill="none" xmlns="http://www.w3.org/2000/svg">
<path d="M11.0153 1.99805C10.7596 1.99805 10.4929 2.08405 10.2972 2.27905C10.1413 2.43605 10.2322 2.39404 9.6729 2.84204C8.68107 3.63704 8.22362 4.45305 8.08078 5.99805C7.09894 5.99805 5.11827 5.99805 5.02238 5.99805C4.47103 5.99805 4.02356 6.44605 4.02356 6.99805V13.873C4.02356 16.535 5.48783 18.818 7.48847 19.998H6.0212C5.46985 19.998 5.02238 20.446 5.02238 20.998C5.02238 21.55 5.46985 21.998 6.0212 21.998H18.0071C18.5584 21.998 19.0059 21.55 19.0059 20.998C19.0059 20.446 18.5584 19.998 18.0071 19.998H16.5088C18.6173 18.752 20.0047 16.429 20.0047 13.998C22.2111 13.998 24 12.207 24 9.99805C24 7.78905 22.2111 5.99805 20.0047 5.99805C19.0918 5.99805 19.2556 5.99805 19.0059 5.99805C18.9749 5.99805 18.1579 5.99805 18.0071 5.99805C17.5676 5.99805 16.1972 5.99805 15.1045 5.99805C15.1924 5.22205 15.3582 4.82605 15.8846 4.40405C16.5348 3.88305 16.4918 3.95204 16.7276 3.71704C17.1171 3.32604 17.1171 2.67005 16.7276 2.27905C16.5318 2.08405 16.2651 1.99805 16.0094 1.99805C15.7537 1.99805 15.487 2.08405 15.2913 2.27905C15.1355 2.43605 15.2263 2.39404 14.667 2.84204C13.6822 3.63104 13.2497 4.47305 13.1068 5.99805C11.7664 5.99805 11.3819 5.99805 10.1104 5.99805C10.2003 5.21205 10.3591 4.83005 10.8905 4.40405C11.5407 3.88305 11.4977 3.95204 11.7335 3.71704C12.123 3.32604 12.123 2.67005 11.7335 2.27905C11.5377 2.08405 11.271 1.99805 11.0153 1.99805ZM20.0047 7.99805C21.1084 7.99805 22.0023 8.89305 22.0023 9.99805C22.0023 11.103 21.1084 11.998 20.0047 11.998V7.99805Z" fill="#707070"/>
</svg>
