<svg width="26" height="26" viewBox="0 0 26 26" fill="none" xmlns="http://www.w3.org/2000/svg">
<path d="M8.66537 2.375C10.2908 2.375 11.9166 2.98442 12.6274 3.28906L13.3722 3.6276C14.0833 3.93237 15.7083 4.54167 17.3331 4.54167C18.4787 4.54163 19.6245 4.2389 20.4498 3.95345C21.0204 3.75619 21.6661 4.16862 21.6664 4.7723V16.124C21.6664 16.3292 21.5508 16.5159 21.3628 16.598C20.6928 16.8906 19.013 17.5416 17.3331 17.5417C15.7081 17.5417 14.0832 16.9323 13.3722 16.6276L12.6274 16.2891C11.9165 15.9844 10.2906 15.375 8.66537 15.375C8.11169 15.375 7.5579 15.4453 7.04037 15.5506V21.6486C7.04024 22.3854 6.434 22.9827 5.6862 22.9827C4.93839 22.9827 4.33216 22.3854 4.33203 21.6486V3.62549C4.33205 3.52293 4.39006 3.42907 4.48332 3.38639C5.01105 3.14496 6.83825 2.37511 8.66537 2.375Z" fill="#707070"/>
</svg>
