<svg width="24" height="24" viewBox="0 0 24 24" fill="none" xmlns="http://www.w3.org/2000/svg">
<path d="M13.2 2.00057C11.2 1.90057 9.20002 2.70057 7.70002 4.10057C6.30002 5.50057 5.50002 7.50057 5.50002 9.50057L3.60002 13.5006C3.40002 14.0006 3.60002 14.6006 4.10002 14.8006C4.20002 15.0006 4.40002 15.0006 4.50002 15.0006H5.50002V17.0006C5.50002 18.1006 6.40002 19.0006 7.50002 19.0006H8.50002V21.0006C8.50002 21.6006 8.90002 22.0006 9.50002 22.0006C10.1 22.0006 18.1 22.0006 18.5 22.0006C18.6 22.0006 18.7 22.0006 18.8 22.0006C19.3 21.8006 19.6 21.3006 19.5 20.8006L18.6 17.6006L20.5 10.3006C20.5 10.2006 20.5 10.1006 20.5 10.0006V9.80057C20.5 5.70057 17.3 2.20057 13.2 2.00057Z" fill="#707070"/>
</svg>
