<svg width="24" height="24" viewBox="0 0 24 24" fill="none" xmlns="http://www.w3.org/2000/svg">
<path d="M3.07391 9.46229C2.42351 9.73529 2.01981 10.2213 2.01371 10.9093C2.00951 11.3903 2.33411 12.0363 2.98451 12.3003C3.25241 12.4093 7.01391 12.9153 7.01391 12.9153C7.01391 12.9153 8.00951 16.0623 8.36831 17.1683C8.47221 17.4883 8.53141 17.6453 8.75941 17.8543C9.14621 18.2083 9.80011 18.0973 10.0829 17.8133C10.8311 17.0633 12.0137 15.9063 12.0137 15.9063L12.5114 16.3113C12.5114 16.3113 14.7215 18.0743 15.9296 18.9043C16.6409 19.3933 17.1346 19.9033 17.9352 19.9063C18.343 19.9083 18.9971 19.7053 19.4295 19.2103C19.7152 18.8833 19.8985 18.3603 19.9694 17.8913C20.1306 16.8263 22.0217 5.31029 22.0137 4.90729C22.0009 4.26429 21.46 3.90228 21.0104 3.90628C20.728 3.90928 20.4953 3.99129 19.9775 4.14929C15.9721 5.3723 3.33921 9.35129 3.07391 9.46229ZM18.0137 6.90629C18.0137 6.90629 12.7357 11.5003 10.6266 13.6143C9.95091 14.2913 9.90321 15.4533 9.90321 15.4533L8.81301 11.9653L18.0137 6.90629Z" fill="#707070"/>
</svg>
