<svg width="21" height="21" viewBox="0 0 21 21" fill="none" xmlns="http://www.w3.org/2000/svg">
<path d="M2.24311 0.882812C1.92323 0.882812 1.58873 0.99032 1.34461 1.23407C0.856484 1.72282 0.856484 2.5428 1.34461 3.03155L9.19623 10.8828L1.34461 18.7341C0.856484 19.2228 0.856484 20.0428 1.34461 20.5316C1.83286 21.0191 2.65336 21.0191 3.14161 20.5316L10.9931 12.6803L18.8446 20.5316C19.3329 21.0191 20.1534 21.0191 20.6416 20.5316C21.1297 20.0428 21.1297 19.2228 20.6416 18.7341L12.79 10.8828L20.6416 3.03155C21.1297 2.5428 21.1297 1.72282 20.6416 1.23407C20.3975 0.99032 20.0629 0.882812 19.7431 0.882812C19.4232 0.882812 19.0889 0.99032 18.8446 1.23407L10.9931 9.08531L3.14161 1.23407C2.89748 0.99032 2.56298 0.882812 2.24311 0.882812Z" fill="#2A343D"/>
</svg>
