<svg width="12" height="13" viewBox="0 0 12 13" fill="none" xmlns="http://www.w3.org/2000/svg">
<path fill-rule="evenodd" clip-rule="evenodd" d="M7.18271 0C7.65286 0 8.10363 0.186903 8.43608 0.519354L8.5538 0.649192C8.81233 0.96466 8.95543 1.36129 8.95543 1.77273V2.36364H11.3191C11.6454 2.36364 11.91 2.6282 11.91 2.95455C11.91 3.2809 11.6454 3.54545 11.3191 3.54545H10.7282V11.2273C10.7282 11.6974 10.5413 12.1482 10.2088 12.4806C9.87636 12.8131 9.42559 13 8.95543 13H3.04634C2.57619 13 2.12542 12.8131 1.79297 12.4806C1.46052 12.1482 1.27362 11.6974 1.27362 11.2273V3.54545H0.682706C0.356356 3.54545 0.0917969 3.2809 0.0917969 2.95455C0.0917969 2.6282 0.356356 2.36364 0.682706 2.36364H3.04634V1.77273C3.04634 1.30257 3.23325 0.851804 3.5657 0.519354L3.69553 0.401634C4.011 0.143107 4.40763 0 4.81907 0H7.18271ZM4.52362 5.90909C4.19727 5.90909 3.93271 6.17365 3.93271 6.5V9.45455C3.93271 9.7809 4.19727 10.0455 4.52362 10.0455C4.84997 10.0455 5.11452 9.7809 5.11452 9.45455V6.5C5.11452 6.17365 4.84997 5.90909 4.52362 5.90909ZM7.47816 5.90909C7.15181 5.90909 6.88725 6.17365 6.88725 6.5V9.45455C6.88725 9.7809 7.15181 10.0455 7.47816 10.0455C7.80451 10.0455 8.06907 9.7809 8.06907 9.45455V6.5C8.06907 6.17365 7.80451 5.90909 7.47816 5.90909ZM4.81907 1.18182C4.68192 1.18182 4.54971 1.22952 4.44456 1.3157L4.40128 1.35494C4.29046 1.46575 4.22816 1.61601 4.22816 1.77273V2.36364H7.77362V1.77273C7.77362 1.63558 7.72591 1.50337 7.63974 1.39822L7.6005 1.35494C7.48968 1.24412 7.33943 1.18182 7.18271 1.18182H4.81907Z" fill="#F62459"/>
</svg>
