<svg width="34" height="34" viewBox="0 0 34 34" fill="none" xmlns="http://www.w3.org/2000/svg">
<path d="M7.4533 2.97216C12.2663 0.152597 18.3585 -0.453538 23.6055 1.5418H23.6054C26.7189 2.72294 29.5552 4.80536 31.4205 7.63654H31.4206C32.8112 9.74354 33.6165 12.2761 33.625 14.809L33.6284 15.8124H33.5824C33.5394 16.3601 33.4567 16.9036 33.3344 17.4407C32.3889 21.605 29.2675 24.8175 26.1942 27.322C24.2154 28.9352 22.1405 30.3995 20.064 31.8178L20.0628 31.8187L20.0615 31.8196C19.2065 32.3997 18.206 33.0831 17.0562 33.4701L17.0563 33.4701C16.7943 33.5592 16.4351 33.6451 16.0557 33.6232C15.666 33.6008 15.146 33.4508 14.7957 32.9561L14.7957 32.9561C14.7946 32.9546 14.7936 32.9531 14.7925 32.9516C14.7915 32.95 14.7903 32.9486 14.7893 32.9471L14.7893 32.947C14.5067 32.5449 14.4852 32.0826 14.4842 31.8662L14.4844 31.789C14.4826 31.472 14.5329 31.115 14.5775 30.8164C14.6271 30.4852 14.6767 30.1849 14.7072 29.8842C14.7378 29.5837 14.7412 29.349 14.7169 29.1747C14.6987 29.0434 14.6714 28.9943 14.6659 28.9855C14.6288 28.9482 14.4807 28.8559 14.0535 28.7929C13.8574 28.764 13.6488 28.7469 13.4175 28.7293C13.2025 28.7129 12.9447 28.6948 12.7151 28.6613L12.7131 28.661L12.711 28.6607C11.7074 28.5102 10.7139 28.2583 9.74929 27.8859V27.8859C7.83586 27.1521 6.10342 25.9857 4.66994 24.5606V24.5605C2.16678 22.0739 0.527741 18.6934 0.38367 15.1341L0.383594 15.1336C0.178963 10.0179 3.13643 5.53664 7.33985 3.03915L7.4533 2.97216ZM22.8946 3.41115C18.1985 1.62533 12.689 2.18125 8.36325 4.75751L8.3628 4.75782L8.36226 4.75805C4.67557 6.94817 2.21168 10.7948 2.38204 15.0537H2.38196C2.50174 18.0096 3.85252 20.8814 5.97792 23.0398L6.07978 23.142L6.08008 23.1423L6.19826 23.2584C7.3878 24.4125 8.79188 25.3508 10.3146 25.9595L10.4673 26.0193L10.4684 26.0196L10.4694 26.0201C11.2851 26.3349 12.1344 26.5516 13.0047 26.6823C13.1499 26.7034 13.3264 26.7166 13.5693 26.7351C13.7965 26.7523 14.0704 26.7739 14.3449 26.8143C14.8504 26.8888 15.599 27.0556 16.128 27.6207L16.1619 27.6577C16.5052 28.0434 16.6432 28.5061 16.6978 28.8991C16.7544 29.3055 16.7338 29.7237 16.697 30.0863C16.6602 30.4487 16.599 30.8217 16.5555 31.1123C16.5292 31.2885 16.51 31.4312 16.4982 31.5468C17.3146 31.2567 18.0718 30.7527 18.936 30.1663C21 28.7565 23.0189 27.3303 24.9306 25.7717L24.9308 25.7716L25.0714 25.6565C28.0181 23.2338 30.6075 20.4189 31.3842 16.9973L31.3843 16.9966L31.4138 16.8628C31.556 16.1933 31.6239 15.5113 31.6173 14.822L31.6127 14.3521C31.5162 12.3808 30.8525 10.4066 29.7513 8.73823L29.7509 8.73754C28.1727 6.34175 25.7491 4.52229 23.0253 3.46143L22.8953 3.41146L22.8946 3.41115ZM14.6689 28.9885L14.6685 28.9881L14.668 28.9876L14.6689 28.9885Z" fill="#F62459"/>
<path d="M23.75 12.8594C23.75 12.6406 23.5703 12.4609 23.3516 12.4609H19.8047C19.5859 12.4609 19.4062 12.2812 19.4062 12.0625V8.51562C19.4062 8.29687 19.2266 8.11719 19.0078 8.11719H15C14.7812 8.11719 14.6016 8.29687 14.6016 8.51562V12.0625C14.6016 12.2812 14.4219 12.4609 14.2031 12.4609H10.6563C10.4375 12.4609 10.2578 12.6406 10.2578 12.8594V16.8672C10.2578 17.0859 10.4375 17.2656 10.6563 17.2656H14.2031C14.4219 17.2656 14.6016 17.4453 14.6016 17.6641V21.2109C14.6016 21.4297 14.7812 21.6094 15 21.6094H19.0078C19.2266 21.6094 19.4062 21.4297 19.4062 21.2109V17.6641C19.4062 17.4453 19.5859 17.2656 19.8047 17.2656H23.3516C23.5703 17.2656 23.75 17.0859 23.75 16.8672V12.8594Z" fill="#F62459"/>
</svg>
