<svg width="34" height="34" viewBox="0 0 34 34" fill="none" xmlns="http://www.w3.org/2000/svg">
<path d="M28.667 0.332031C31.4282 0.332206 33.6668 2.57087 33.667 5.33203V28.666C33.6668 31.4272 31.4282 33.6658 28.667 33.666H5.33301C2.57184 33.6658 0.333183 31.4272 0.333008 28.666V5.33203C0.333184 2.57087 2.57184 0.332207 5.33301 0.332031H28.667ZM16.999 9.45703C16.5158 9.45703 16.124 9.84878 16.124 10.332V16.124H10.332C9.84878 16.124 9.45703 16.5158 9.45703 16.999C9.45721 17.4821 9.84889 17.874 10.332 17.874H16.124V23.665C16.124 24.1483 16.5158 24.54 16.999 24.54C17.4821 24.5399 17.874 24.1482 17.874 23.665V17.874H23.665L23.7549 17.8691C24.196 17.8243 24.5399 17.4519 24.54 16.999C24.54 16.546 24.1961 16.1728 23.7549 16.1279L23.665 16.124H17.874V10.332C17.874 9.84889 17.4821 9.45721 16.999 9.45703Z" fill="black"/>
</svg>
