<svg width="20" height="20" viewBox="0 0 20 20" fill="none" xmlns="http://www.w3.org/2000/svg">
<path d="M9 0C13.9706 0 18 4.02944 18 9C18 11.125 17.2619 13.0766 16.0303 14.6162L19.707 18.293L19.7764 18.3691C20.0965 18.7619 20.0731 19.341 19.707 19.707C19.341 20.0729 18.7618 20.0965 18.3691 19.7764L18.293 19.707L14.6162 16.0303C13.0766 17.2619 11.125 18 9 18C4.02944 18 0 13.9706 0 9C0 4.02944 4.02944 0 9 0ZM9 2C5.13401 2 2 5.13401 2 9C2 12.866 5.13401 16 9 16C10.892 16 12.6074 15.248 13.8672 14.0283C13.8906 13.9989 13.9161 13.9706 13.9434 13.9434C13.9709 13.9158 13.9995 13.8898 14.0293 13.8662C15.2484 12.6065 16 10.8915 16 9C16 5.13401 12.866 2 9 2Z" fill="white"/>
</svg>
