<svg width="17" height="20" viewBox="0 0 17 20" fill="none" xmlns="http://www.w3.org/2000/svg">
<path d="M8.02734 0C7.61334 0 7.19424 0.230994 7.05854 0.718994L6.71484 2H3.02734C1.37044 2 0.0273438 3.343 0.0273438 5V12C0.0273438 13.657 1.37044 15 3.02734 15H3.08984L2.05854 18.719C1.91074 19.251 2.21404 19.821 2.74614 19.969C3.27824 20.117 3.84834 19.813 3.99614 19.281L5.18354 15H7.02734V18C7.02734 18.552 7.47504 19 8.02734 19C8.57964 19 9.02734 18.552 9.02734 18V15H10.8711L12.0585 19.281C12.2064 19.813 12.7762 20.117 13.3085 19.969C13.8407 19.821 14.1439 19.251 13.9961 18.719L12.9648 15H13.0273C14.6842 15 16.0273 13.657 16.0273 12V5C16.0273 3.343 14.6842 2 13.0273 2H9.33984L8.99614 0.718994C8.86044 0.230994 8.44124 0 8.02734 0Z" fill="#277EFF"/>
</svg>
