<svg width="24" height="24" viewBox="0 0 24 24" fill="none" xmlns="http://www.w3.org/2000/svg">
<path d="M11.9749 2.99257C11.2599 3.00057 10.5679 3.14458 10.0369 3.39858C9.11726 3.83958 4.00586 6.39858 4.00586 6.39858C5.73326 7.26258 10.2459 9.51859 10.8179 9.80459C11.4409 10.1156 12.5709 10.1166 13.1939 9.80459L20.0679 6.43056C20.0689 6.43056 15.4739 4.10058 14.0369 3.39858C13.4289 3.10158 12.6889 2.98457 11.9749 2.99257ZM3.00586 7.99257V14.9306C3.00596 16.1396 3.82536 17.4526 4.91206 17.9926L11.0059 20.9926V11.8986C10.7289 11.8606 10.2209 11.7086 9.91206 11.5546L3.56836 8.39858C3.19816 8.21458 3.00586 7.99257 3.00586 7.99257ZM21.0059 7.99257C21.0059 7.99257 20.8139 8.21458 20.4439 8.39858L14.0999 11.5546C13.7909 11.7086 13.2829 11.8606 13.0059 11.8986V20.9926L19.0999 17.9926C20.1859 17.4526 21.0059 16.1396 21.0059 14.9306V7.99257Z" fill="#707070"/>
</svg>
