<svg width="24" height="24" viewBox="0 0 24 24" fill="none" xmlns="http://www.w3.org/2000/svg">
<path fill-rule="evenodd" clip-rule="evenodd" d="M16.5 2.99023C19.5376 2.9903 22 5.45324 22 8.49121C21.9998 11.675 20.1863 14.6789 17.1875 17.4287C16.1639 18.3667 15.0617 19.1897 13.9688 19.9287C13.5857 20.1867 13.2275 20.4212 12.9063 20.6162C12.7105 20.7352 12.5813 20.8212 12.5 20.8662C12.1981 21.0341 11.8019 21.034 11.5 20.8662C11.4187 20.8212 11.2894 20.7351 11.0938 20.6162C10.7726 20.4212 10.4143 20.1867 10.0313 19.9287C8.93827 19.1897 7.83609 18.3667 6.8125 17.4287C3.81365 14.6788 2.00018 11.675 2 8.49121C2 5.45321 4.4624 2.99023 7.5 2.99023C9.31986 2.99027 10.9985 3.90676 12.0313 5.30274C13.0905 3.93078 14.7748 2.99023 16.5 2.99023ZM11.999 8.55176C11.3644 8.55189 10.8497 9.06687 10.8496 9.70117V10.8506H9.7002C9.06559 10.8508 8.55078 11.3657 8.55078 12C8.55079 12.6343 9.06559 13.1492 9.7002 13.1494H10.8496V14.2988C10.8497 14.9331 11.3644 15.4481 11.999 15.4482C12.6338 15.4482 13.1484 14.9332 13.1484 14.2988V13.1494H14.2979C14.9326 13.1494 15.4473 12.6344 15.4473 12C15.4473 11.3656 14.9326 10.8506 14.2979 10.8506H13.1484V9.70117C13.1484 9.06679 12.6338 8.55176 11.999 8.55176Z" fill="#303030"/>
</svg>
