<svg width="13" height="12" viewBox="0 0 13 12" fill="none" xmlns="http://www.w3.org/2000/svg">
<path d="M6.5 0C2.91005 0 0 2.6862 0 6C0 6.7632 0.170296 7.5366 0.467346 8.2314L0.975 9.1872C1.29675 9.8046 1.18365 10.3866 0.751404 11.1C0.512854 11.4948 0.81055 11.9706 1.3 11.9814C1.96105 11.9952 3.0186 11.7444 3.8597 11.4564C4.63515 11.787 5.6342 12 6.5 12C10.0899 12 13 9.3138 13 6C13 2.6862 10.0899 0 6.5 0ZM3.9 5.4C4.2588 5.4 4.55 5.6688 4.55 6C4.55 6.3312 4.2588 6.6 3.9 6.6C3.5412 6.6 3.25 6.3312 3.25 6C3.25 5.6688 3.5412 5.4 3.9 5.4ZM6.5 5.4C6.8588 5.4 7.15 5.6688 7.15 6C7.15 6.3312 6.8588 6.6 6.5 6.6C6.1412 6.6 5.85 6.3312 5.85 6C5.85 5.6688 6.1412 5.4 6.5 5.4ZM9.1 5.4C9.4588 5.4 9.75 5.6688 9.75 6C9.75 6.3312 9.4588 6.6 9.1 6.6C8.7412 6.6 8.45 6.3312 8.45 6C8.45 5.6688 8.7412 5.4 9.1 5.4Z" fill="white"/>
</svg>
