<svg width="15" height="14" viewBox="0 0 15 14" fill="none" xmlns="http://www.w3.org/2000/svg">
<path d="M7.0988 1.11481L7.19283 1.11899C7.569 1.15801 7.86352 1.47668 7.86359 1.86394L7.85001 2.00603C7.78848 2.32677 7.52186 2.57366 7.19283 2.60783L7.0988 2.61306H2.82034C2.72709 2.61318 2.63374 2.64037 2.55496 2.69246L2.48182 2.75306C2.39094 2.844 2.34194 2.96691 2.34182 3.09158V11.6809C2.34182 11.8062 2.39071 11.929 2.48078 12.0194L2.48182 12.0204C2.57236 12.1104 2.69578 12.1592 2.82034 12.1594H11.4096C11.5346 12.1593 11.6575 12.11 11.7482 12.0194L11.8088 11.9463C11.8609 11.8675 11.8882 11.7747 11.8882 11.6809V7.38571L11.9038 7.23526C11.9737 6.89397 12.2756 6.63669 12.6373 6.63658L12.7877 6.65226C13.1287 6.72233 13.3862 7.02415 13.3864 7.38571V11.6809C13.3864 12.1395 13.2263 12.5819 12.9382 12.9336L12.8076 13.0788C12.4372 13.4492 11.9336 13.6575 11.4096 13.6576H2.82034C2.36197 13.6576 1.91929 13.4974 1.56762 13.2094L1.42239 13.0788C1.05193 12.7083 0.842529 12.2049 0.842529 11.6809V3.09158L0.852977 2.8962C0.897953 2.44377 1.09823 2.01781 1.42239 1.69363L1.56762 1.56303C1.91926 1.27505 2.36184 1.11486 2.82034 1.11481H7.0988Z" fill="#277EFF"/>
<path d="M13.1168 0.350019C13.229 0.361308 13.3407 0.389011 13.446 0.432558L13.5484 0.480619C13.6482 0.533877 13.7402 0.60161 13.82 0.681221L13.8952 0.764805C13.9666 0.851956 14.0251 0.950214 14.0687 1.05526L14.1073 1.16183C14.1293 1.23382 14.1437 1.30781 14.1512 1.38228L14.1575 1.49512C14.1574 1.60769 14.1403 1.72023 14.1073 1.82841L14.0687 1.93498C14.0253 2.03951 13.9668 2.13725 13.8952 2.22439L13.82 2.30798L7.93046 8.2017C7.91646 8.21568 7.90025 8.2277 7.88344 8.23722L7.8312 8.25812L6.06235 8.70007C5.90625 8.73904 5.76318 8.59695 5.8022 8.43991L6.24415 6.6742L6.26505 6.62196C6.27452 6.60536 6.28633 6.58922 6.30057 6.57494L12.1891 0.681221L12.2737 0.60495C12.4788 0.437214 12.7369 0.343822 13.004 0.34375L13.1168 0.350019Z" fill="#277EFF"/>
</svg>
