<svg width="21" height="21" viewBox="0 0 21 21" fill="none" xmlns="http://www.w3.org/2000/svg">
<path d="M10.499 0.0141296C4.97602 0.0141296 0.499023 4.49113 0.499023 10.0141C0.499023 15.5371 4.97602 20.0141 10.499 20.0141C16.022 20.0141 20.499 15.5371 20.499 10.0141C20.499 4.49113 16.022 0.0141296 10.499 0.0141296ZM10.499 5.01413C11.051 5.01413 11.499 5.46213 11.499 6.01413C11.499 6.56613 11.051 7.01413 10.499 7.01413C9.94702 7.01413 9.49902 6.56613 9.49902 6.01413C9.49902 5.46213 9.94702 5.01413 10.499 5.01413ZM9.49902 8.01413C9.66102 8.01413 10.373 8.01413 10.499 8.01413C11.13 8.01413 11.592 8.58312 11.468 9.20212L10.718 13.0141H11.499C12.051 13.0141 12.499 13.4621 12.499 14.0141C12.499 14.5661 12.051 15.0141 11.499 15.0141H10.499C9.31602 15.0141 8.48602 13.9871 8.71802 12.8261L9.31104 9.95212C8.85804 9.85612 8.49902 9.49613 8.49902 9.01413C8.49902 8.46213 8.94702 8.01413 9.49902 8.01413Z" fill="#B0B0B0"/>
</svg>
