<svg id="Layer_1" enable-background="new 0 0 32 32" height="512" viewBox="0 0 32 32" width="512" xmlns="http://www.w3.org/2000/svg"><g><path d="m6 32h8c3.309 0 6-2.691 6-6v-2c0-1.104-.896-2-2-2s-2 .896-2 2v2c0 1.103-.897 2-2 2h-8c-1.103 0-2-.897-2-2v-20c0-1.103.897-2 2-2h8c1.103 0 2 .897 2 2v2c0 1.104.896 2 2 2s2-.896 2-2v-2c0-3.309-2.691-6-6-6h-8c-3.309 0-6 2.691-6 6v20c0 3.309 2.691 6 6 6z"/><path d="m25.172 14h-14.172c-1.104 0-2 .896-2 2s.896 2 2 2h14.172l-1.505 1.505c-.781.781-.781 2.047 0 2.828.391.391.902.586 1.414.586s1.023-.195 1.414-.586l4.919-4.919c.781-.781.781-2.047 0-2.828l-4.919-4.919c-.781-.781-2.047-.781-2.828 0s-.781 2.047 0 2.828z"/></g></svg>