<svg width="18" height="18" viewBox="0 0 18 18" fill="none" xmlns="http://www.w3.org/2000/svg">
<path d="M9.00008 0.666664C4.41675 0.666664 0.666748 4.41666 0.666748 9C0.666748 13.5833 4.41675 17.3333 9.00008 17.3333C13.5834 17.3333 17.3334 13.5833 17.3334 9C17.3334 4.41666 13.5834 0.666664 9.00008 0.666664ZM9.00008 13.1667C8.50008 13.1667 8.16675 12.8333 8.16675 12.3333C8.16675 11.8333 8.50008 11.5 9.00008 11.5C9.50008 11.5 9.83341 11.8333 9.83341 12.3333C9.83341 12.8333 9.50008 13.1667 9.00008 13.1667ZM9.83341 9.82894C9.83341 10.3289 9.50008 10.6623 9.00008 10.6623C8.50008 10.6623 8.16675 10.3289 8.16675 9.82894V5.66666C8.16675 5.16666 8.50008 4.83333 9.00008 4.83333C9.50008 4.83333 9.83341 5.16666 9.83341 5.66666V9.82894Z" fill="#FFD028"/>
</svg>
